Coordinates
version=1
nRows=19
nColumns=24
inDegrees=yes

Units are S.I. units (second, meters, Newtons, ...)
Angles are in degrees.

endheader
time	pelvis_tilt	pelvis_list	pelvis_rotation	pelvis_tx	pelvis_ty	pelvis_tz	hip_flexion_r	hip_adduction_r	hip_rotation_r	knee_angle_r	ankle_angle_r	subtalar_angle_r	mtp_angle_r	hip_flexion_l	hip_adduction_l	hip_rotation_l	knee_angle_l	ankle_angle_l	subtalar_angle_l	mtp_angle_l	lumbar_extension	lumbar_bending	lumbar_rotation
      0.48000000	     -2.35610514	      2.04668043	      0.71711402	     -0.84250774	      1.00237478	      0.30038716	     23.02619025	     -2.17756198	     -9.24073797	      1.66470086	      2.04075170	     -8.60494260	     -7.08341973	     -7.70498868	      3.49429774	     -3.65940310	     -9.95498228	     12.31035939	    -12.54893692	    -16.00315863	     -8.91826935	     -1.63214443	     -1.77264160
      0.48416667	     -2.16270018	      1.95347873	      0.75561730	     -0.83670905	      1.00188184	      0.30048538	     22.91031645	     -2.09808417	     -9.18758520	      1.19723642	      1.94715156	     -8.55876117	     -6.97987106	     -8.05783175	      3.34821369	     -3.67781360	    -10.40186072	     12.55246685	    -12.35885697	    -16.02216655	     -9.13111027	     -1.45383508	     -1.79951344
      0.48833333	     -1.81819412	      1.76842602	      0.76164498	     -0.83074908	      1.00167786	      0.30063149	     22.57897703	     -1.90369589	     -9.11676159	      0.77620160	      1.72510602	     -8.57667209	     -6.77100331	     -8.59277467	      3.10155697	     -3.74808167	    -10.82995003	     12.75820362	    -12.19414271	    -16.03632417	     -9.50668116	     -1.15886451	     -1.82895339
      0.49250000	     -1.73491104	      1.69500866	      0.76591717	     -0.82491135	      1.00107109	      0.30077185	     22.60516379	     -1.83255641	     -9.01110530	      0.17263623	      1.54518043	     -8.57952924	     -6.74709711	     -8.79835444	      2.99189346	     -3.71747279	    -11.34008256	     12.85177798	    -12.25157079	    -16.03383707	     -9.58049337	     -1.00813310	     -1.83094574
      0.49666667	     -1.30876347	      1.47572584	      0.77452128	     -0.81895153	      1.00105687	      0.30101195	     22.16878283	     -1.59101848	     -8.92123064	     -0.29811172	      1.22594724	     -8.69637362	     -6.47889473	     -9.36272679	      2.68186559	     -3.86370376	    -11.88400757	     13.10877871	    -11.85533357	    -15.99117222	    -10.05826466	     -0.67432866	     -1.87398207
      0.50083333	     -1.21395621	      1.39978739	      0.76500465	     -0.81308179	      1.00054194	      0.30118820	     22.17862611	     -1.51010937	     -8.81271808	     -0.96339887	      0.96573839	     -8.70864354	     -6.44956772	     -9.53839304	      2.56586328	     -3.84980922	    -12.47612205	     13.13074023	    -11.92026268	    -15.98359336	    -10.14537376	     -0.52063388	     -1.86653159
      0.50500000	     -0.82450412	      1.18407764	      0.75421628	     -0.80710812	      1.00053780	      0.30155973	     21.76583688	     -1.24821193	     -8.62765107	     -1.45036200	      0.50832830	     -9.01316316	     -6.15210940	    -10.00170824	      2.24584074	     -4.05788939	    -13.14161666	     13.32218898	    -11.49918865	    -15.88584043	    -10.57813356	     -0.19244926	     -1.86336269
      0.50916667	     -0.69410368	      1.09084870	      0.71129023	     -0.80119844	      1.00015333	      0.30183239	     21.71732728	     -1.13027708	     -8.47958049	     -2.11330758	      0.09799128	     -9.04796405	     -6.07317738	    -10.17760125	      2.10844408	     -4.07218766	    -13.81315759	     13.36386911	    -11.53059367	    -15.85282084	    -10.72102639	     -0.03869159	     -1.84151205
      0.51333333	     -0.30145151	      0.84028592	      0.56566320	     -0.79502606	      1.00020358	      0.30245825	     21.29186868	     -0.77254916	     -8.19491436	     -2.60843610	     -0.48230036	     -9.46007552	     -5.58281287	    -10.64446502	      1.76306308	     -4.45142187	    -14.51119910	     13.42105018	    -11.12835672	    -15.62141204	    -11.12300878	      0.30806031	     -1.76236101
      0.51750000	     -0.16363423	      0.71876302	      0.57079148	     -0.78909472	      0.99995656	      0.30277601	     21.17797269	     -0.62141208	     -8.03455617	     -3.19484257	     -1.02810956	     -9.77707861	     -5.32482413	    -10.73484684	      1.55880906	     -4.51609558	    -15.35195266	     13.37610034	    -11.01047640	    -15.47227828	    -11.26327543	      0.51289898	     -1.69543613
      0.52166667	      0.09441853	      0.50637320	      0.32717568	     -0.78288944	      0.99985087	      0.30359883	     20.92027058	     -0.27031586	     -7.64949284	     -3.74154674	     -1.65498141	    -10.11279315	     -4.65600217	    -11.01121831	      1.26991786	     -4.96718250	    -16.14869651	     13.35600456	    -10.70909605	    -15.03188400	    -11.52243284	      0.77404629	     -1.56754217
      0.52583333	      0.21246189	      0.38647771	      0.33640741	     -0.77694582	      0.99968069	      0.30390197	     20.80275548	     -0.12283646	     -7.50322592	     -4.29595867	     -2.29734119	    -10.47169511	     -4.43592907	    -11.01519999	      1.06587085	     -5.00339314	    -17.10715050	     13.20024068	    -10.66790376	    -14.85646533	    -11.64377104	      0.97850320	     -1.50099295
      0.53000000	      0.35348369	      0.20813539	      0.21200070	     -0.77082663	      0.99955907	      0.30453437	     20.63539749	      0.14878903	     -7.21098870	     -4.79693573	     -3.01394901	    -10.90624665	     -4.15807120	    -11.04818594	      0.79360111	     -5.28722596	    -18.09402477	     13.04352295	    -10.48287088	    -14.60693934	    -11.77052280	      1.21822661	     -1.45647229
      0.53416667	      0.42778848	      0.04821827	     -0.08412179	     -0.76458150	      0.99931111	      0.30546534	     20.57403872	      0.45644497	     -6.80301471	     -5.35482343	     -3.72275468	    -11.30217470	      1.42950134	    -11.02039556	      0.56011487	     -5.77968955	    -19.08717749	     12.75563016	    -10.35743299	     -8.54484879	    -11.80707496	      1.40569616	     -1.17786439
      0.53833333	     -0.27121488	      0.24869587	      0.00432679	     -0.75923638	      0.99808059	      0.30564055	     21.49962612	      0.22030226	     -6.66921431	     -6.19561963	     -4.28495992	    -11.54412256	      1.39659936	     -9.86306351	      0.70292060	     -5.51146249	    -20.47929581	     12.43141025	    -10.65819988	     -8.44927056	    -11.04596744	      1.26511774	     -1.43758182
      0.54250000	     -0.20245586	      0.12363978	     -0.03954411	     -0.75331414	      0.99803098	      0.30603502	     21.40684985	      0.38266497	     -6.52677511	     -6.71035645	     -4.92520802	    -11.84203023	      1.38485421	     -9.65738433	      0.48451294	     -5.62880312	    -21.70535898	     12.05825090	    -10.69716367	     -8.37526425	    -11.10804076	      1.46421394	     -1.34160296
      0.54666667	     -0.16667936	     -0.02419140	     -0.20175039	     -0.74732618	      0.99792010	      0.30678066	     21.35820809	      0.63092037	     -6.24113877	     -7.24193621	     -5.55715193	    -12.32009896	      1.37703058	     -9.39931166	      0.22543974	     -5.94340667	    -22.98546818	     11.67780455	    -10.60530530	     -8.21227650	    -11.13510935	      1.67212389	     -1.25306132
      0.55083333	     -0.13295883	     -0.17316490	     -0.47904670	     -0.74127152	      0.99781765	      0.30780824	     21.30141562	      0.92691140	     -5.84111918	     -7.74595176	     -6.19574002	    -12.70496268	      1.37027946	     -9.12349417	     -0.04440870	     -6.42855812	    -24.31042645	     11.23709179	    -10.46317894	     -7.84690963	    -11.15294051	      1.83234572	     -1.02510483
      0.55500000	     -0.08715971	     -0.36397129	     -0.57324926	     -0.73512425	      0.99788599	      0.30823454	     21.18254561	      1.15620130	     -5.75915400	     -8.21799440	     -6.68743466	    -12.83522288	      1.36478953	     -8.81525188	     -0.34027479	     -6.61862650	    -25.67539022	     10.61529191	    -10.63016210	     -7.74475328	    -11.16998876	      2.12530401	     -0.92901982
